<svg width="7040" height="7040" viewBox="0 0 7040 7040" fill="none" xmlns="http://www.w3.org/2000/svg">
<rect width="7040" height="7040" rx="3520" fill="#FFA100"/>
<path d="M874.704 3426.9H1404.47V3624.98H874.704V3426.9ZM893.568 3879.64H1492.5V4084H640.476V2983.6H1472.06V3187.96H893.568V3879.64ZM1615.69 3739.73V3543.23H2060.57V3739.73H1615.69Z" fill="#302803"/>
<path d="M2440.42 4084V3191.1H2088.29V2983.6H3047.21V3191.1H2695.08V4084H2440.42ZM3418.46 3426.9H3948.22V3624.98H3418.46V3426.9ZM3437.32 3879.64H4036.25V4084H3184.23V2983.6H4015.82V3187.96H3437.32V3879.64ZM4765.5 4102.86C4680.61 4102.86 4601.49 4089.24 4528.13 4061.99C4455.82 4033.7 4392.94 3993.87 4339.49 3942.52C4286.04 3891.17 4244.12 3830.91 4213.73 3761.74C4184.39 3692.57 4169.71 3616.59 4169.71 3533.8C4169.71 3451.01 4184.39 3375.03 4213.73 3305.86C4244.12 3236.69 4286.04 3176.43 4339.49 3125.08C4393.99 3073.73 4457.39 3034.43 4529.7 3007.18C4602.01 2978.88 4681.14 2964.74 4767.07 2964.74C4862.44 2964.74 4948.38 2981.5 5024.88 3015.04C5102.43 3047.53 5167.41 3095.74 5219.81 3159.66L5056.32 3310.58C5018.59 3267.61 4976.67 3235.64 4930.56 3214.68C4884.45 3192.68 4834.15 3181.67 4779.65 3181.67C4728.3 3181.67 4681.14 3190.06 4638.17 3206.82C4595.2 3223.59 4558 3247.7 4526.56 3279.14C4495.12 3310.58 4470.49 3347.78 4452.67 3390.75C4435.91 3433.72 4427.52 3481.4 4427.52 3533.8C4427.52 3586.2 4435.91 3633.88 4452.67 3676.85C4470.49 3719.82 4495.12 3757.02 4526.56 3788.46C4558 3819.9 4595.2 3844.01 4638.17 3860.78C4681.14 3877.54 4728.3 3885.93 4779.65 3885.93C4834.15 3885.93 4884.45 3875.45 4930.56 3854.49C4976.67 3832.48 5018.59 3799.47 5056.32 3755.45L5219.81 3906.36C5167.41 3970.29 5102.43 4019.02 5024.88 4052.56C4948.38 4086.1 4861.92 4102.86 4765.5 4102.86ZM6146.34 2983.6H6401.01V4084H6146.34V2983.6ZM5646.45 4084H5391.78V2983.6H5646.45V4084ZM6165.21 3632.84H5627.58V3417.47H6165.21V3632.84Z" fill="white"/>
</svg>
